<svg width="1180" height="1239" viewBox="0 0 1180 1239" fill="none" xmlns="http://www.w3.org/2000/svg">
<path d="M1180 590C1180 915.848 915.848 1180 590 1180C264.152 1180 0 915.848 0 590C0 264.152 264.152 0 590 0C915.848 0 1180 264.152 1180 590Z" fill="url(#paint0_linear_3_2)"/>
<circle cx="437" cy="1086" r="153" fill="url(#paint1_linear_3_2)" fill-opacity="0.24"/>
<circle cx="183" cy="548" r="153" fill="url(#paint2_linear_3_2)" fill-opacity="0.24"/>
<circle cx="840" cy="626" r="153" fill="url(#paint3_linear_3_2)" fill-opacity="0.24"/>
<rect x="833.343" y="877.338" width="292.475" height="82.0567" rx="41.0283" transform="rotate(31.2773 833.343 877.338)" fill="#04D7A2" fill-opacity="0.31"/>
<rect x="395.703" y="600" width="292.475" height="82.0567" rx="41.0283" transform="rotate(28.9375 395.703 600)" fill="#04D7A2" fill-opacity="0.31"/>
<rect x="66.5975" y="662.824" width="292.475" height="82.0567" rx="41.0283" transform="rotate(34.0297 66.5975 662.824)" fill="#04D7A2" fill-opacity="0.31"/>
<rect width="74.4314" height="20.8824" rx="10.4412" transform="matrix(0.828747 0.559623 0.559623 -0.828747 578 976.306)" fill="#04D7A2" fill-opacity="0.31"/>
<rect width="74.4314" height="20.8824" rx="10.4412" transform="matrix(0.828747 0.559623 0.559623 -0.828747 541 855.306)" fill="#04D7A2" fill-opacity="0.31"/>
<rect x="185.349" y="811.115" width="214.709" height="69.4343" rx="34.7171" transform="rotate(31.5166 185.349 811.115)" fill="#04D7A2" fill-opacity="0.31"/>
<defs>
<linearGradient id="paint0_linear_3_2" x1="249.5" y1="1068.5" x2="1842.5" y2="-902.5" gradientUnits="userSpaceOnUse">
<stop stop-color="#1D214E"/>
<stop offset="0.927083" stop-color="#04D7A2"/>
</linearGradient>
<linearGradient id="paint1_linear_3_2" x1="437" y1="1239" x2="669.5" y2="579" gradientUnits="userSpaceOnUse">
<stop stop-color="#04D7A2"/>
<stop offset="1" stop-color="#1D214E" stop-opacity="0"/>
</linearGradient>
<linearGradient id="paint2_linear_3_2" x1="183" y1="701" x2="415.5" y2="41" gradientUnits="userSpaceOnUse">
<stop stop-color="#04D7A2"/>
<stop offset="1" stop-color="#1D214E" stop-opacity="0"/>
</linearGradient>
<linearGradient id="paint3_linear_3_2" x1="840" y1="779" x2="1072.5" y2="119" gradientUnits="userSpaceOnUse">
<stop stop-color="#04D7A2"/>
<stop offset="1" stop-color="#1D214E" stop-opacity="0"/>
</linearGradient>
</defs>
</svg>
